<mxfile host="Electron" agent="Mozilla/5.0 (Macintosh; Intel Mac OS X 10_15_7) AppleWebKit/537.36 (KHTML, like Gecko) draw.io/24.7.17 Chrome/128.0.6613.36 Electron/32.0.1 Safari/537.36" version="24.7.17">
  <diagram id="ZdwTuiK6LGV12zfFTO1-" name="Page-1">
    <mxGraphModel dx="838" dy="-1765" grid="1" gridSize="10" guides="1" tooltips="1" connect="1" arrows="1" fold="1" page="1" pageScale="1" pageWidth="827" pageHeight="1169" math="0" shadow="0">
      <root>
        <mxCell id="0" />
        <mxCell id="1" parent="0" />
        <mxCell id="o_eSBWRK0VfQsR33nONc-1" value="Node Engine" style="rounded=1;whiteSpace=wrap;html=1;fontSize=13;strokeColor=#67AB9F;fontColor=#808080;fillColor=none;strokeWidth=2;fontFamily=CMU Sans Serif;" parent="1" vertex="1">
          <mxGeometry x="40" y="2850" width="67.5" height="29" as="geometry" />
        </mxCell>
        <mxCell id="o_eSBWRK0VfQsR33nONc-2" value="" style="endArrow=none;dashed=1;html=1;dashPattern=1 3;strokeWidth=2;rounded=0;strokeColor=#67AB9F;fontColor=#808080;fontFamily=CMU Sans Serif;fontSize=13;" parent="1" edge="1">
          <mxGeometry width="50" height="50" relative="1" as="geometry">
            <mxPoint x="107" y="2850" as="sourcePoint" />
            <mxPoint x="157" y="2800" as="targetPoint" />
          </mxGeometry>
        </mxCell>
        <mxCell id="o_eSBWRK0VfQsR33nONc-3" value="" style="endArrow=none;dashed=1;html=1;dashPattern=1 3;strokeWidth=2;rounded=0;entryX=0;entryY=1;entryDx=0;entryDy=0;strokeColor=#67AB9F;fontColor=#808080;fontFamily=CMU Sans Serif;fontSize=13;" parent="1" target="o_eSBWRK0VfQsR33nONc-4" edge="1">
          <mxGeometry width="50" height="50" relative="1" as="geometry">
            <mxPoint x="107.5" y="2879" as="sourcePoint" />
            <mxPoint x="160.5" y="2919" as="targetPoint" />
          </mxGeometry>
        </mxCell>
        <mxCell id="o_eSBWRK0VfQsR33nONc-4" value="" style="rounded=0;whiteSpace=wrap;html=1;strokeColor=#67AB9F;fontColor=#808080;fillColor=none;strokeWidth=2;fontFamily=CMU Sans Serif;fontSize=13;" parent="1" vertex="1">
          <mxGeometry x="160" y="2800" width="320" height="150" as="geometry" />
        </mxCell>
        <mxCell id="o_eSBWRK0VfQsR33nONc-5" value="MQTT" style="rounded=1;whiteSpace=wrap;html=1;strokeColor=#67AB9F;fontColor=#808080;fillColor=none;strokeWidth=2;fontFamily=CMU Sans Serif;fontSize=13;" parent="1" vertex="1">
          <mxGeometry x="170" y="2810" width="110" height="20" as="geometry" />
        </mxCell>
        <mxCell id="o_eSBWRK0VfQsR33nONc-8" value="" style="rounded=1;whiteSpace=wrap;html=1;strokeColor=#67AB9F;fontColor=#808080;fillColor=none;strokeWidth=2;fontFamily=CMU Sans Serif;fontSize=13;" parent="1" vertex="1">
          <mxGeometry x="170" y="2840" width="90" height="100" as="geometry" />
        </mxCell>
        <mxCell id="o_eSBWRK0VfQsR33nONc-9" value="Models" style="text;html=1;strokeColor=none;fillColor=none;align=center;verticalAlign=middle;whiteSpace=wrap;rounded=0;fontColor=#808080;strokeWidth=2;fontFamily=CMU Sans Serif;fontSize=13;" parent="1" vertex="1">
          <mxGeometry x="185" y="2836" width="60" height="30" as="geometry" />
        </mxCell>
        <mxCell id="o_eSBWRK0VfQsR33nONc-10" value="Node" style="rounded=1;whiteSpace=wrap;html=1;strokeColor=#67AB9F;fontColor=#808080;fillColor=none;strokeWidth=2;fontFamily=CMU Sans Serif;fontSize=13;" parent="1" vertex="1">
          <mxGeometry x="185" y="2870" width="50" height="25" as="geometry" />
        </mxCell>
        <mxCell id="o_eSBWRK0VfQsR33nONc-11" value="Service" style="rounded=1;whiteSpace=wrap;html=1;strokeColor=#67AB9F;fontColor=#808080;fillColor=none;strokeWidth=2;fontFamily=CMU Sans Serif;fontSize=13;" parent="1" vertex="1">
          <mxGeometry x="185" y="2900" width="60" height="30" as="geometry" />
        </mxCell>
        <mxCell id="o_eSBWRK0VfQsR33nONc-12" value="Net API" style="rounded=1;whiteSpace=wrap;html=1;strokeColor=#67AB9F;fontColor=#808080;fillColor=none;strokeWidth=2;fontFamily=CMU Sans Serif;fontSize=13;" parent="1" vertex="1">
          <mxGeometry x="293" y="2810" width="60" height="20" as="geometry" />
        </mxCell>
        <mxCell id="o_eSBWRK0VfQsR33nONc-14" value="" style="rounded=1;whiteSpace=wrap;html=1;strokeColor=#67AB9F;fontColor=#808080;fillColor=none;strokeWidth=2;fontFamily=CMU Sans Serif;fontSize=13;" parent="1" vertex="1">
          <mxGeometry x="274" y="2840" width="90" height="100" as="geometry" />
        </mxCell>
        <mxCell id="o_eSBWRK0VfQsR33nONc-15" value="Jobs" style="text;html=1;strokeColor=none;fillColor=none;align=center;verticalAlign=middle;whiteSpace=wrap;rounded=0;fontColor=#808080;strokeWidth=2;fontFamily=CMU Sans Serif;fontSize=13;" parent="1" vertex="1">
          <mxGeometry x="289" y="2836" width="60" height="30" as="geometry" />
        </mxCell>
        <mxCell id="o_eSBWRK0VfQsR33nONc-16" value="" style="rounded=1;whiteSpace=wrap;html=1;strokeColor=#67AB9F;fontColor=#808080;fillColor=none;strokeWidth=2;fontFamily=CMU Sans Serif;fontSize=13;" parent="1" vertex="1">
          <mxGeometry x="377" y="2840" width="90" height="100" as="geometry" />
        </mxCell>
        <mxCell id="o_eSBWRK0VfQsR33nONc-17" value="Runtimes" style="text;html=1;strokeColor=none;fillColor=none;align=center;verticalAlign=middle;whiteSpace=wrap;rounded=0;fontColor=#808080;strokeWidth=2;fontFamily=CMU Sans Serif;fontSize=13;" parent="1" vertex="1">
          <mxGeometry x="392" y="2836" width="60" height="30" as="geometry" />
        </mxCell>
        <mxCell id="o_eSBWRK0VfQsR33nONc-18" value="Node Status" style="rounded=1;whiteSpace=wrap;html=1;strokeColor=#67AB9F;fontColor=#808080;fillColor=none;strokeWidth=2;fontFamily=CMU Sans Serif;fontSize=13;" parent="1" vertex="1">
          <mxGeometry x="289" y="2865" width="60" height="30" as="geometry" />
        </mxCell>
        <mxCell id="o_eSBWRK0VfQsR33nONc-19" value="Jobs Status" style="rounded=1;whiteSpace=wrap;html=1;strokeColor=#67AB9F;fontColor=#808080;fillColor=none;strokeWidth=2;fontFamily=CMU Sans Serif;fontSize=13;" parent="1" vertex="1">
          <mxGeometry x="289" y="2900" width="60" height="30" as="geometry" />
        </mxCell>
        <mxCell id="o_eSBWRK0VfQsR33nONc-20" value="Container Runtime" style="rounded=1;whiteSpace=wrap;html=1;strokeColor=#67AB9F;fontColor=#808080;fillColor=none;strokeWidth=2;fontFamily=CMU Sans Serif;fontSize=13;" parent="1" vertex="1">
          <mxGeometry x="392" y="2865" width="60" height="30" as="geometry" />
        </mxCell>
        <mxCell id="o_eSBWRK0VfQsR33nONc-26" value="" style="endArrow=none;dashed=1;html=1;dashPattern=1 3;strokeWidth=2;rounded=0;strokeColor=#67AB9F;fontColor=#808080;fontFamily=CMU Sans Serif;fontSize=13;" parent="1" edge="1">
          <mxGeometry width="50" height="50" relative="1" as="geometry">
            <mxPoint x="421" y="2920" as="sourcePoint" />
            <mxPoint x="421" y="2895" as="targetPoint" />
          </mxGeometry>
        </mxCell>
        <mxCell id="o_eSBWRK0VfQsR33nONc-27" value="" style="rounded=1;whiteSpace=wrap;html=1;strokeColor=#67AB9F;fontColor=#808080;fillColor=none;strokeWidth=2;fontFamily=CMU Sans Serif;fontSize=13;" parent="1" vertex="1">
          <mxGeometry x="392" y="2920" width="62" height="10" as="geometry" />
        </mxCell>
        <mxCell id="WMRqFL7HZ3rAUJPBZaZo-1" value="Net Manager" style="rounded=1;whiteSpace=wrap;html=1;fontSize=13;strokeColor=#67AB9F;fontColor=#808080;fillColor=none;strokeWidth=2;fontFamily=CMU Sans Serif;" parent="1" vertex="1">
          <mxGeometry x="40" y="2690" width="67.5" height="29" as="geometry" />
        </mxCell>
        <mxCell id="WMRqFL7HZ3rAUJPBZaZo-2" value="" style="endArrow=none;dashed=1;html=1;dashPattern=1 3;strokeWidth=2;rounded=0;strokeColor=#67AB9F;fontColor=#808080;entryX=0;entryY=0;entryDx=0;entryDy=0;fontFamily=CMU Sans Serif;fontSize=13;" parent="1" target="WMRqFL7HZ3rAUJPBZaZo-4" edge="1">
          <mxGeometry width="50" height="50" relative="1" as="geometry">
            <mxPoint x="107" y="2690" as="sourcePoint" />
            <mxPoint x="157" y="2640" as="targetPoint" />
          </mxGeometry>
        </mxCell>
        <mxCell id="WMRqFL7HZ3rAUJPBZaZo-3" value="" style="endArrow=none;dashed=1;html=1;dashPattern=1 3;strokeWidth=2;rounded=0;entryX=0;entryY=1;entryDx=0;entryDy=0;strokeColor=#67AB9F;fontColor=#808080;fontFamily=CMU Sans Serif;fontSize=13;" parent="1" target="WMRqFL7HZ3rAUJPBZaZo-4" edge="1">
          <mxGeometry width="50" height="50" relative="1" as="geometry">
            <mxPoint x="107.5" y="2719" as="sourcePoint" />
            <mxPoint x="160.5" y="2759" as="targetPoint" />
          </mxGeometry>
        </mxCell>
        <mxCell id="WMRqFL7HZ3rAUJPBZaZo-4" value="" style="rounded=0;whiteSpace=wrap;html=1;strokeColor=#67AB9F;fontColor=#808080;fillColor=none;strokeWidth=2;fontFamily=CMU Sans Serif;fontSize=13;" parent="1" vertex="1">
          <mxGeometry x="160" y="2660" width="320" height="130" as="geometry" />
        </mxCell>
        <mxCell id="WMRqFL7HZ3rAUJPBZaZo-5" value="MQTT" style="rounded=1;whiteSpace=wrap;html=1;strokeColor=#67AB9F;fontColor=#808080;fillColor=none;strokeWidth=2;fontFamily=CMU Sans Serif;fontSize=13;" parent="1" vertex="1">
          <mxGeometry x="170" y="2760" width="110" height="20" as="geometry" />
        </mxCell>
        <mxCell id="WMRqFL7HZ3rAUJPBZaZo-6" value="" style="rounded=1;whiteSpace=wrap;html=1;strokeColor=#67AB9F;fontColor=#808080;fillColor=none;strokeWidth=2;" parent="1" vertex="1">
          <mxGeometry x="349" y="2484" width="90" height="100" as="geometry" />
        </mxCell>
        <mxCell id="WMRqFL7HZ3rAUJPBZaZo-7" value="Models" style="text;html=1;strokeColor=none;fillColor=none;align=center;verticalAlign=middle;whiteSpace=wrap;rounded=0;fontColor=#808080;strokeWidth=2;" parent="1" vertex="1">
          <mxGeometry x="364" y="2480" width="60" height="30" as="geometry" />
        </mxCell>
        <mxCell id="WMRqFL7HZ3rAUJPBZaZo-8" value="Node" style="rounded=1;whiteSpace=wrap;html=1;strokeColor=#67AB9F;fontColor=#808080;fillColor=none;strokeWidth=2;" parent="1" vertex="1">
          <mxGeometry x="364" y="2514" width="50" height="25" as="geometry" />
        </mxCell>
        <mxCell id="WMRqFL7HZ3rAUJPBZaZo-9" value="Service" style="rounded=1;whiteSpace=wrap;html=1;strokeColor=#67AB9F;fontColor=#808080;fillColor=none;strokeWidth=2;" parent="1" vertex="1">
          <mxGeometry x="364" y="2544" width="60" height="30" as="geometry" />
        </mxCell>
        <mxCell id="WMRqFL7HZ3rAUJPBZaZo-20" style="edgeStyle=orthogonalEdgeStyle;rounded=0;orthogonalLoop=1;jettySize=auto;html=1;exitX=0.5;exitY=1;exitDx=0;exitDy=0;entryX=0.5;entryY=0;entryDx=0;entryDy=0;startArrow=oval;startFill=1;endArrow=oval;endFill=1;strokeColor=#67AB9F;strokeWidth=2;fontColor=#808080;fontFamily=CMU Sans Serif;fontSize=13;" parent="1" source="WMRqFL7HZ3rAUJPBZaZo-10" target="o_eSBWRK0VfQsR33nONc-12" edge="1">
          <mxGeometry relative="1" as="geometry" />
        </mxCell>
        <mxCell id="WMRqFL7HZ3rAUJPBZaZo-10" value="Net API" style="rounded=1;whiteSpace=wrap;html=1;strokeColor=#67AB9F;fontColor=#808080;fillColor=none;strokeWidth=2;fontFamily=CMU Sans Serif;fontSize=13;" parent="1" vertex="1">
          <mxGeometry x="293" y="2760" width="60" height="20" as="geometry" />
        </mxCell>
        <mxCell id="WMRqFL7HZ3rAUJPBZaZo-11" value="" style="rounded=1;whiteSpace=wrap;html=1;strokeColor=#67AB9F;fontColor=#808080;fillColor=none;strokeWidth=2;" parent="1" vertex="1">
          <mxGeometry x="453" y="2484" width="90" height="100" as="geometry" />
        </mxCell>
        <mxCell id="WMRqFL7HZ3rAUJPBZaZo-12" value="Jobs" style="text;html=1;strokeColor=none;fillColor=none;align=center;verticalAlign=middle;whiteSpace=wrap;rounded=0;fontColor=#808080;strokeWidth=2;" parent="1" vertex="1">
          <mxGeometry x="468" y="2480" width="60" height="30" as="geometry" />
        </mxCell>
        <mxCell id="WMRqFL7HZ3rAUJPBZaZo-13" value="" style="rounded=1;whiteSpace=wrap;html=1;strokeColor=#67AB9F;fontColor=#808080;fillColor=none;strokeWidth=2;" parent="1" vertex="1">
          <mxGeometry x="556" y="2484" width="90" height="100" as="geometry" />
        </mxCell>
        <mxCell id="WMRqFL7HZ3rAUJPBZaZo-14" value="Runtimes" style="text;html=1;strokeColor=none;fillColor=none;align=center;verticalAlign=middle;whiteSpace=wrap;rounded=0;fontColor=#808080;strokeWidth=2;" parent="1" vertex="1">
          <mxGeometry x="571" y="2480" width="60" height="30" as="geometry" />
        </mxCell>
        <mxCell id="WMRqFL7HZ3rAUJPBZaZo-15" value="Node Status" style="rounded=1;whiteSpace=wrap;html=1;strokeColor=#67AB9F;fontColor=#808080;fillColor=none;strokeWidth=2;" parent="1" vertex="1">
          <mxGeometry x="468" y="2509" width="60" height="30" as="geometry" />
        </mxCell>
        <mxCell id="WMRqFL7HZ3rAUJPBZaZo-16" value="Jobs Status" style="rounded=1;whiteSpace=wrap;html=1;strokeColor=#67AB9F;fontColor=#808080;fillColor=none;strokeWidth=2;" parent="1" vertex="1">
          <mxGeometry x="468" y="2544" width="60" height="30" as="geometry" />
        </mxCell>
        <mxCell id="WMRqFL7HZ3rAUJPBZaZo-17" value="Container Runtime" style="rounded=1;whiteSpace=wrap;html=1;strokeColor=#67AB9F;fontColor=#808080;fillColor=none;strokeWidth=2;" parent="1" vertex="1">
          <mxGeometry x="571" y="2509" width="60" height="30" as="geometry" />
        </mxCell>
        <mxCell id="WMRqFL7HZ3rAUJPBZaZo-18" value="" style="endArrow=none;dashed=1;html=1;dashPattern=1 3;strokeWidth=2;rounded=0;strokeColor=#67AB9F;fontColor=#808080;" parent="1" edge="1">
          <mxGeometry width="50" height="50" relative="1" as="geometry">
            <mxPoint x="600" y="2564" as="sourcePoint" />
            <mxPoint x="600" y="2539" as="targetPoint" />
          </mxGeometry>
        </mxCell>
        <mxCell id="WMRqFL7HZ3rAUJPBZaZo-19" value="" style="rounded=1;whiteSpace=wrap;html=1;strokeColor=#67AB9F;fontColor=#808080;fillColor=none;strokeWidth=2;" parent="1" vertex="1">
          <mxGeometry x="571" y="2564" width="62" height="10" as="geometry" />
        </mxCell>
        <mxCell id="WMRqFL7HZ3rAUJPBZaZo-21" value="" style="rounded=1;whiteSpace=wrap;html=1;strokeColor=#67AB9F;fontColor=#808080;fillColor=none;strokeWidth=2;fontFamily=CMU Sans Serif;fontSize=13;" parent="1" vertex="1">
          <mxGeometry x="170" y="2670" width="110" height="84.5" as="geometry" />
        </mxCell>
        <mxCell id="WMRqFL7HZ3rAUJPBZaZo-22" value="Translation&amp;nbsp;&lt;span style=&quot;background-color: initial; font-size: 13px;&quot;&gt;Table&lt;/span&gt;" style="text;html=1;strokeColor=none;fillColor=none;align=center;verticalAlign=middle;whiteSpace=wrap;rounded=0;fontColor=#808080;strokeWidth=2;fontFamily=CMU Sans Serif;fontSize=13;" parent="1" vertex="1">
          <mxGeometry x="169" y="2670" width="111" height="30" as="geometry" />
        </mxCell>
        <mxCell id="WMRqFL7HZ3rAUJPBZaZo-23" value="" style="rounded=1;whiteSpace=wrap;html=1;strokeColor=#67AB9F;fontColor=#808080;fillColor=none;strokeWidth=2;fontFamily=CMU Sans Serif;fontSize=13;" parent="1" vertex="1">
          <mxGeometry x="290" y="2670" width="110" height="84.5" as="geometry" />
        </mxCell>
        <mxCell id="WMRqFL7HZ3rAUJPBZaZo-24" value="Proxy Table" style="text;html=1;strokeColor=none;fillColor=none;align=center;verticalAlign=middle;whiteSpace=wrap;rounded=0;fontColor=#808080;strokeWidth=2;fontFamily=CMU Sans Serif;fontSize=13;" parent="1" vertex="1">
          <mxGeometry x="304" y="2670" width="81" height="30" as="geometry" />
        </mxCell>
        <mxCell id="WMRqFL7HZ3rAUJPBZaZo-25" value="Env.&lt;div style=&quot;font-size: 13px;&quot;&gt;Manager&lt;/div&gt;" style="rounded=1;whiteSpace=wrap;html=1;strokeColor=#67AB9F;fontColor=#808080;fillColor=none;strokeWidth=2;fontFamily=CMU Sans Serif;fontSize=13;" parent="1" vertex="1">
          <mxGeometry x="408" y="2670" width="62" height="110" as="geometry" />
        </mxCell>
        <mxCell id="WMRqFL7HZ3rAUJPBZaZo-26" value="Service 1 IPs" style="rounded=1;whiteSpace=wrap;html=1;strokeColor=none;fontColor=#808080;fillColor=none;fontFamily=Courier New;strokeWidth=2;fontSize=12;" parent="1" vertex="1">
          <mxGeometry x="174" y="2699.75" width="96" height="25" as="geometry" />
        </mxCell>
        <mxCell id="WMRqFL7HZ3rAUJPBZaZo-27" value="Service 2 IPs" style="rounded=1;whiteSpace=wrap;html=1;strokeColor=none;fontColor=#808080;fillColor=none;fontFamily=Courier New;strokeWidth=2;fontSize=12;" parent="1" vertex="1">
          <mxGeometry x="174" y="2724.75" width="96" height="25" as="geometry" />
        </mxCell>
        <mxCell id="WMRqFL7HZ3rAUJPBZaZo-30" style="edgeStyle=orthogonalEdgeStyle;rounded=0;orthogonalLoop=1;jettySize=auto;html=1;exitX=1;exitY=0.5;exitDx=0;exitDy=0;entryX=0;entryY=0.5;entryDx=0;entryDy=0;startArrow=classic;startFill=1;strokeColor=#67AB9F;strokeWidth=2;fontColor=#808080;fontFamily=CMU Sans Serif;fontSize=13;" parent="1" source="WMRqFL7HZ3rAUJPBZaZo-28" target="WMRqFL7HZ3rAUJPBZaZo-29" edge="1">
          <mxGeometry relative="1" as="geometry" />
        </mxCell>
        <mxCell id="WMRqFL7HZ3rAUJPBZaZo-28" value="S1.1" style="rounded=1;whiteSpace=wrap;html=1;strokeColor=#67AB9F;fontColor=#808080;fillColor=none;strokeWidth=2;fontFamily=Courier New;fontSize=12;" parent="1" vertex="1">
          <mxGeometry x="298.5" y="2715" width="36" height="20" as="geometry" />
        </mxCell>
        <mxCell id="WMRqFL7HZ3rAUJPBZaZo-29" value="S1.1" style="rounded=1;whiteSpace=wrap;html=1;strokeColor=#67AB9F;fontColor=#808080;fillColor=none;strokeWidth=2;fontFamily=Courier New;fontSize=12;" parent="1" vertex="1">
          <mxGeometry x="357.5" y="2715" width="36" height="20" as="geometry" />
        </mxCell>
      </root>
    </mxGraphModel>
  </diagram>
</mxfile>
